<?xml version="1.0" encoding="utf-8"?>
<!-- Generator: Adobe Illustrator 23.0.3, SVG Export Plug-In . SVG Version: 6.00 Build 0)  -->
<svg version="1.1" id="Layer_1" xmlns="http://www.w3.org/2000/svg" xmlns:xlink="http://www.w3.org/1999/xlink" x="0px" y="0px"
	 viewBox="0 0 43.714 43.714" style="enable-background:new 0 0 43.714 43.714;" xml:space="preserve">
<style type="text/css">
	.st0{fill:url(#SVGID_2_);}
	.st1{clip-path:url(#SVGID_3_);fill:url(#SVGID_4_);}
	.st2{opacity:0.4;clip-path:url(#SVGID_3_);fill:url(#SVGID_6_);}
	.st3{fill:url(#SVGID_7_);}
	.st4{fill:#42D392;}
	.st5{fill:url(#SVGID_8_);}
	.st6{fill:#647EFF;}
	.st7{fill:#FDFDFE;}
	.st8{fill:url(#SVGID_9_);}
	.st9{fill:url(#SVGID_10_);}
	.st10{fill:url(#SVGID_11_);}
	.st11{fill:url(#SVGID_12_);}
	.st12{fill:url(#SVGID_13_);}
	.st13{fill:url(#SVGID_14_);}
	.st14{fill:url(#SVGID_15_);}
	.st15{fill:url(#SVGID_16_);}
	.st16{fill:url(#SVGID_17_);}
	.st17{fill:url(#SVGID_18_);}
	.st18{fill:url(#SVGID_19_);}
	.st19{fill:url(#SVGID_20_);}
	.st20{clip-path:url(#SVGID_22_);}
	.st21{fill:url(#SVGID_23_);}
	.st22{fill:url(#SVGID_24_);}
	.st23{fill:url(#SVGID_25_);}
	.st24{fill:url(#SVGID_26_);}
	.st25{fill:url(#SVGID_27_);}
	.st26{fill:none;}
	.st27{clip-path:url(#SVGID_29_);fill:url(#SVGID_30_);}
	.st28{clip-path:url(#SVGID_29_);}
	.st29{fill:url(#SVGID_31_);}
	.st30{fill:url(#SVGID_32_);}
	.st31{clip-path:url(#SVGID_29_);fill:url(#SVGID_33_);}
	.st32{clip-path:url(#SVGID_29_);fill:#FFFFFF;}
	.st33{clip-path:url(#SVGID_35_);fill:url(#SVGID_36_);}
	.st34{clip-path:url(#SVGID_35_);}
	.st35{fill:url(#SVGID_37_);}
	.st36{fill:#FFFFFF;}
	.st37{fill:url(#SVGID_38_);}
	.st38{fill:url(#SVGID_39_);}
	.st39{clip-path:url(#SVGID_41_);}
	.st40{fill:url(#SVGID_42_);}
	.st41{fill:url(#SVGID_43_);}
	.st42{fill:url(#SVGID_44_);}
	.st43{fill:url(#SVGID_45_);}
</style>
<g>
	<defs>
		<path id="SVGID_28_" d="M38.089,43.714H5.625C2.518,43.714,0,41.196,0,38.089V5.625C0,2.518,2.518,0,5.625,0h32.464
			c3.107,0,5.625,2.518,5.625,5.625v32.464C43.714,41.196,41.196,43.714,38.089,43.714z"/>
	</defs>
	<clipPath id="SVGID_2_">
		<use xlink:href="#SVGID_28_"  style="overflow:visible;"/>
	</clipPath>
	
		<linearGradient id="SVGID_3_" gradientUnits="userSpaceOnUse" x1="109.141" y1="-7.2258" x2="117.1371" y2="-7.2258" gradientTransform="matrix(-0.6401 -0.7683 0.7683 -0.6401 99.8243 117.8407)">
		<stop  offset="0" style="stop-color:#42D392"/>
		<stop  offset="0.23" style="stop-color:#36C092"/>
		<stop  offset="0.6942" style="stop-color:#178F92"/>
		<stop  offset="1" style="stop-color:#006B92"/>
	</linearGradient>
	<path style="clip-path:url(#SVGID_2_);fill:url(#SVGID_3_);" d="M21.857,35.538l2.614-3.025c0.165,0.143,0.318,0.298,0.457,0.466
		c1.404,1.685,1.172,4.227-0.513,5.631s-4.227,1.172-5.631-0.513c-1.404-1.685-1.172-4.227,0.513-5.631L21.857,35.538z"/>
	<g style="clip-path:url(#SVGID_2_);">
		<linearGradient id="SVGID_4_" gradientUnits="userSpaceOnUse" x1="24.8661" y1="46.2588" x2="12.9695" y2="19.6775">
			<stop  offset="0" style="stop-color:#42D392"/>
			<stop  offset="0.23" style="stop-color:#36C092"/>
			<stop  offset="0.6942" style="stop-color:#178F92"/>
			<stop  offset="1" style="stop-color:#006B92"/>
		</linearGradient>
		<polygon style="fill:url(#SVGID_4_);" points="21.857,4.179 2.962,39.536 12.711,39.536 21.857,22.422 31.003,39.536 
			40.753,39.536 		"/>
		<linearGradient id="SVGID_6_" gradientUnits="userSpaceOnUse" x1="14.8464" y1="4.1786" x2="14.8464" y2="39.5357">
			<stop  offset="0" style="stop-color:#42D392"/>
			<stop  offset="0.23" style="stop-color:#36C092"/>
			<stop  offset="0.6942" style="stop-color:#178F92"/>
			<stop  offset="1" style="stop-color:#006B92"/>
		</linearGradient>
		<polygon style="fill:url(#SVGID_6_);" points="21.857,4.179 2.962,39.536 12.71,39.536 26.731,13.299 		"/>
	</g>
	<linearGradient id="SVGID_7_" gradientUnits="userSpaceOnUse" x1="4.2459" y1="22.3471" x2="22.7169" y2="22.3471">
		<stop  offset="0" style="stop-color:#42D392"/>
		<stop  offset="0.23" style="stop-color:#36C092"/>
		<stop  offset="0.6942" style="stop-color:#178F92"/>
		<stop  offset="1" style="stop-color:#006B92"/>
	</linearGradient>
	<path style="clip-path:url(#SVGID_2_);fill:url(#SVGID_7_);" d="M13.245,24.896c-0.044,0.514-0.08,1.029-0.132,1.542
		c-0.045,0.452-0.253,0.802-0.705,0.948c-0.427,0.138-0.786,0.004-1.095-0.312c-2.209-2.26-4.423-4.514-6.628-6.777
		c-0.637-0.654-0.581-1.24,0.155-1.777c2.527-1.843,5.058-3.68,7.584-5.524c0.382-0.279,0.774-0.403,1.212-0.168
		c0.457,0.245,0.579,0.653,0.532,1.146c-0.08,0.835-0.142,1.671-0.212,2.506c-0.067,0.799-0.064,0.783,0.754,0.931
		c1.319,0.239,2.608,0.587,3.823,1.165c3.887,1.851,5.262,5.947,3.285,9.788c-0.699,1.359-1.694,2.462-2.949,3.333
		c-0.381,0.264-0.767,0.446-1.188,0.101c-0.398-0.326-0.25-0.71-0.1-1.1c0.418-1.086,0.751-2.189,0.755-3.373
		c0.004-1.457-0.634-2.531-1.867-3.27c-0.839-0.503-1.766-0.77-2.709-0.994c-0.264-0.063-0.379-0.001-0.392,0.29
		C13.346,23.868,13.289,24.382,13.245,24.896z"/>
	<path style="clip-path:url(#SVGID_2_);fill:#FFFFFF;" d="M18.164,32.273c-0.207,0-0.433-0.067-0.66-0.253
		c-0.557-0.457-0.342-1.014-0.185-1.421c0.361-0.939,0.732-2.063,0.736-3.271c0.003-1.336-0.563-2.326-1.729-3.026
		c-0.817-0.49-1.746-0.751-2.629-0.961c-0.016-0.004-0.029-0.007-0.041-0.009c-0.001,0.01-0.002,0.022-0.003,0.036
		c-0.018,0.377-0.052,0.753-0.087,1.129l-0.075,0.886c-0.029,0.362-0.059,0.723-0.094,1.084c-0.062,0.608-0.373,1.019-0.9,1.189
		c-0.351,0.114-0.874,0.139-1.385-0.383l-2.578-2.634c-1.351-1.38-2.702-2.76-4.051-4.143c-0.375-0.385-0.549-0.771-0.517-1.15
		c0.032-0.38,0.271-0.734,0.709-1.054l3.542-2.58c1.348-0.98,2.695-1.961,4.042-2.944c0.533-0.387,1.027-0.449,1.513-0.188
		c0.516,0.275,0.744,0.754,0.681,1.422c-0.056,0.576-0.103,1.153-0.149,1.73l-0.063,0.773c-0.019,0.225-0.038,0.457-0.014,0.512
		c0.038,0.026,0.267,0.067,0.488,0.107c1.585,0.287,2.822,0.664,3.942,1.197c1.945,0.926,3.36,2.454,3.984,4.301
		c0.627,1.856,0.425,3.941-0.569,5.873c-0.704,1.37-1.727,2.526-3.038,3.437C18.863,32.051,18.543,32.272,18.164,32.273z
		 M13.605,22.758c0.082,0,0.159,0.015,0.224,0.03c0.927,0.22,1.906,0.497,2.789,1.026c1.335,0.801,2.009,1.983,2.005,3.515
		c-0.004,1.3-0.394,2.485-0.773,3.474c-0.167,0.431-0.205,0.598,0.015,0.779c0.235,0.193,0.44,0.167,0.848-0.115
		c1.234-0.857,2.195-1.944,2.857-3.23c0.923-1.793,1.113-3.723,0.536-5.432c-0.574-1.701-1.886-3.111-3.691-3.971
		c-1.072-0.51-2.265-0.874-3.751-1.142c-0.958-0.173-1.063-0.31-0.986-1.233l0.063-0.771c0.047-0.58,0.094-1.16,0.149-1.738
		c0.042-0.443-0.072-0.703-0.384-0.869c-0.29-0.155-0.554-0.113-0.911,0.146c-1.347,0.983-2.694,1.964-4.042,2.945L5.01,18.75
		c-0.3,0.218-0.46,0.435-0.478,0.644C4.515,19.601,4.635,19.839,4.89,20.1c1.348,1.383,2.699,2.762,4.05,4.142l2.579,2.635
		c0.253,0.259,0.507,0.335,0.805,0.24c0.194-0.063,0.459-0.205,0.51-0.707c0.035-0.357,0.064-0.715,0.093-1.073l0.076-0.893
		c0.034-0.367,0.068-0.735,0.085-1.103c0.004-0.085,0.016-0.341,0.21-0.487C13.394,22.781,13.502,22.758,13.605,22.758z"/>
</g>
</svg>
